<svg width="120" height="120" viewBox="0 0 120 120" fill="none" xmlns="http://www.w3.org/2000/svg">
<circle cx="60" cy="60" r="60" fill="#362866" fill-opacity="0.02"/>
<circle cx="60" cy="60" r="50" fill="#362866" fill-opacity="0.02"/>
<circle cx="60" cy="60" r="40" fill="#6D50CC" fill-opacity="0.04"/>
<path d="M76.7484 42.5469H43.1499C41.3649 42.5469 40 43.8729 40 45.6069V74.0653C40 75.6973 41.3649 77.1254 43.1499 77.1254H76.7484C78.4283 77.1254 79.8983 75.6973 79.8983 74.0653V45.6069C79.8983 43.9749 78.5333 42.5469 76.7484 42.5469ZM50.2896 47.7489C52.0745 47.7489 53.6494 49.177 53.6494 51.013C53.6494 52.849 52.1795 54.277 50.2896 54.277C48.5046 54.277 46.9297 52.849 46.9297 51.013C46.9297 49.177 48.5046 47.7489 50.2896 47.7489ZM47.8747 72.5353C47.5597 72.5353 47.2447 72.4333 46.9297 72.2293C46.2997 71.7193 46.2997 71.0053 46.8247 70.3933L53.3344 61.5191C53.8594 61.0091 54.5944 60.9071 55.2243 61.3151L60.8941 65.1912L71.0786 54.583C71.6036 54.073 74.1235 51.421 75.5934 54.379V72.4333C75.5934 72.5353 47.8747 72.5353 47.8747 72.5353Z" fill="#8864FF"/>
<path d="M74.5088 45.3125H45.39C43.8431 45.3125 42.6602 46.4264 42.6602 47.8829V71.788C42.6602 73.1589 43.8431 74.3584 45.39 74.3584H74.5088C75.9647 74.3584 77.2386 73.1589 77.2386 71.788V47.8829C77.2386 46.512 76.0557 45.3125 74.5088 45.3125ZM51.5778 49.6822C53.1247 49.6822 54.4896 50.8818 54.4896 52.424C54.4896 53.9663 53.2157 55.1658 51.5778 55.1658C50.0308 55.1658 48.6659 53.9663 48.6659 52.424C48.6659 50.8818 50.0308 49.6822 51.5778 49.6822ZM49.4849 70.5028C49.2119 70.5028 48.9389 70.4171 48.6659 70.2457C48.1199 69.8173 48.1199 69.2176 48.5749 68.7035L54.2167 61.2492C54.6716 60.8208 55.3086 60.7351 55.8546 61.0778L60.7684 64.3337L69.595 55.4229C70.05 54.9945 72.2339 52.7668 73.5078 55.2515V70.4171C73.5078 70.5028 49.4849 70.5028 49.4849 70.5028Z" fill="#A98EFF"/>
<path d="M54.4895 52.4254C54.4895 50.8831 53.1246 49.6836 51.5776 49.6836C50.0307 49.6836 48.6658 50.8831 48.6658 52.4254C48.6658 53.9677 50.0307 55.1672 51.5776 55.1672C53.2156 55.1672 54.4895 53.9677 54.4895 52.4254Z" fill="#8864FF"/>
<path d="M48.6658 70.2471C48.9388 70.4184 49.2117 70.5041 49.4847 70.5041C49.4847 70.5041 73.5077 70.5041 73.5077 70.4184V55.2529C72.2337 52.7681 70.0498 54.9958 69.5949 55.4242L60.7682 64.3351L55.8545 61.0792C55.3085 60.7365 54.6715 60.8221 54.2165 61.2506L48.5748 68.7048C48.1198 69.2189 48.1198 69.8187 48.6658 70.2471Z" fill="#8864FF"/>
<path d="M77.2383 39.8867C72.353 39.8867 68.3721 43.8677 68.3721 48.753C68.3721 53.6383 72.353 57.6193 77.2383 57.6193C82.1237 57.6193 86.1046 53.6383 86.1046 48.753C86.1046 43.8677 82.1237 39.8867 77.2383 39.8867ZM77.2383 54.0728C76.7507 54.0728 76.3517 53.6738 76.3517 53.1861C76.3517 52.6985 76.7507 52.2995 77.2383 52.2995C77.726 52.2995 78.125 52.6985 78.125 53.1861C78.125 53.6738 77.726 54.0728 77.2383 54.0728ZM79.0471 49.9233C78.2314 50.4642 78.0984 50.7568 78.0806 50.81C77.9565 51.1824 77.6107 51.4129 77.2383 51.4129C77.1408 51.4129 77.0522 51.3951 76.9546 51.3685C76.4936 51.209 76.2453 50.7036 76.3961 50.2425C76.6709 49.4446 77.4777 48.8328 78.0629 48.4427C79.1712 47.7068 79.0293 46.9088 78.985 46.6517C78.8609 45.9513 78.2668 45.3572 77.5664 45.2331C77.31 45.1853 77.0461 45.1946 76.7937 45.2603C76.5413 45.326 76.3064 45.4465 76.1058 45.6132C75.9052 45.78 75.7438 45.9889 75.6331 46.225C75.5223 46.4612 75.465 46.7189 75.4651 46.9797C75.4651 47.4674 75.0661 47.8664 74.5785 47.8664C74.0908 47.8664 73.6918 47.4674 73.6918 46.9797C73.6918 45.9335 74.1529 44.9405 74.9597 44.2667C75.7665 43.584 76.8305 43.3091 77.8767 43.4864C79.3042 43.7435 80.4745 44.9139 80.7317 46.3414C80.9799 47.76 80.377 49.0367 79.0471 49.9233Z" fill="black" fill-opacity="0.36"/>
<path d="M78.1251 39C73.2397 39 69.2588 42.981 69.2588 47.8663C69.2588 52.7516 73.2397 56.7326 78.1251 56.7326C83.0104 56.7326 86.9913 52.7516 86.9913 47.8663C86.9913 42.981 83.0104 39 78.1251 39ZM78.1251 53.186C77.6374 53.186 77.2384 52.7871 77.2384 52.2994C77.2384 51.8118 77.6374 51.4128 78.1251 51.4128C78.6127 51.4128 79.0117 51.8118 79.0117 52.2994C79.0117 52.7871 78.6127 53.186 78.1251 53.186ZM79.9338 49.0366C79.1181 49.5775 78.9851 49.8701 78.9674 49.9233C78.8432 50.2956 78.4975 50.5262 78.1251 50.5262C78.0275 50.5262 77.9389 50.5084 77.8413 50.4818C77.3803 50.3222 77.132 49.8169 77.2828 49.3558C77.5576 48.5578 78.3645 47.9461 78.9496 47.556C80.0579 46.8201 79.9161 46.0221 79.8717 45.765C79.7476 45.0645 79.1536 44.4705 78.4531 44.3464C78.1967 44.2986 77.9329 44.3079 77.6804 44.3736C77.428 44.4393 77.1931 44.5598 76.9925 44.7265C76.7919 44.8932 76.6305 45.1021 76.5198 45.3383C76.409 45.5745 76.3517 45.8322 76.3518 46.093C76.3518 46.5807 75.9528 46.9797 75.4652 46.9797C74.9775 46.9797 74.5786 46.5807 74.5786 46.093C74.5786 45.0468 75.0396 44.0538 75.8464 43.3799C76.6533 42.6972 77.7172 42.4224 78.7634 42.5997C80.1909 42.8568 81.3613 44.0272 81.6184 45.4546C81.8666 46.8733 81.2637 48.15 79.9338 49.0366Z" fill="#ACF080"/>
<path d="M77.238 52.2991C77.238 52.7867 77.637 53.1857 78.1246 53.1857C78.6123 53.1857 79.0113 52.7867 79.0113 52.2991C79.0113 51.8114 78.6123 51.4124 78.1246 51.4124C77.637 51.4124 77.238 51.8114 77.238 52.2991Z" fill="#8864FF"/>
<path d="M78.9669 49.9229C78.9847 49.8697 79.1177 49.5771 79.9334 49.0363C81.2633 48.1497 81.8662 46.8729 81.618 45.4543C81.3608 44.0268 80.1905 42.8565 78.763 42.5994C77.7168 42.422 76.6528 42.6969 75.846 43.3796C75.0392 44.0534 74.5781 45.0465 74.5781 46.0927C74.5781 46.5803 74.9771 46.9793 75.4648 46.9793C75.9524 46.9793 76.3514 46.5803 76.3514 46.0927C76.3513 45.8318 76.4086 45.5742 76.5193 45.338C76.6301 45.1018 76.7915 44.8929 76.9921 44.7262C77.1927 44.5594 77.4276 44.4389 77.68 44.3732C77.9324 44.3075 78.1963 44.2982 78.4527 44.346C79.1531 44.4702 79.7472 45.0642 79.8713 45.7646L79.8718 45.7673C79.9166 46.0272 80.0537 46.8222 78.9492 47.5556C78.364 47.9457 77.5572 48.5575 77.2823 49.3555C77.1316 49.8165 77.3799 50.3219 77.8409 50.4815C77.9384 50.5081 78.0271 50.5258 78.1246 50.5258C78.497 50.5258 78.8428 50.2953 78.9669 49.9229Z" fill="#8864FF"/>
</svg>
