<svg width="14" height="14" viewBox="0 0 14 14" fill="none" xmlns="http://www.w3.org/2000/svg">
<path fill-rule="evenodd" clip-rule="evenodd" d="M7 14C10.866 14 14 10.866 14 7C14 3.13401 10.866 0 7 0C3.13401 0 0 3.13401 0 7C0 10.866 3.13401 14 7 14ZM7 13C10.3137 13 13 10.3137 13 7C13 3.68629 10.3137 1 7 1C3.68629 1 1 3.68629 1 7C1 10.3137 3.68629 13 7 13Z" fill="#A5A6AA"/>
<path d="M7.53226 10.7959C7.3871 10.9411 7.19355 11.0137 7 11.0137C6.80645 11.0137 6.6129 10.929 6.46774 10.7959C6.32258 10.6508 6.25 10.4572 6.25 10.2637C6.25 10.058 6.33468 9.87657 6.46774 9.73141C6.6129 9.58625 6.80645 9.51367 7 9.51367C7.19355 9.51367 7.3871 9.59835 7.53226 9.73141C7.67742 9.87657 7.75 10.0701 7.75 10.2637C7.75 10.4693 7.67742 10.6629 7.53226 10.7959Z" fill="#A5A6AA"/>
<path d="M7.98 7.33C7.84 7.38 7.72 7.48 7.63 7.6C7.54 7.73 7.5 7.88 7.5 8.03C7.5 8.03 7.5 8.37 7.41 8.5C7.31 8.62 7.17 8.72 7 8.72C6.83 8.72 6.69 8.63 6.59 8.5C6.47 8.34 6.49 8.05 6.49 8.05C6.49 7.69 6.6 7.33 6.8 7.04C7 6.75 7.28 6.53 7.61 6.4C8.14 6.2 8.49 5.75 8.49 5.26C8.49 4.57 7.82 4.01 6.99 4.01C6.23 4.01 5.6 4.48 5.5 5.09C5.5 5.11 5.45 5.44 5.38 5.51C5.32 5.6 5.15 5.67 5 5.67C4.85 5.67 4.72 5.6 4.63 5.5C4.56 5.42 4.51 5.31 4.5 5.19C4.5 5.17 4.51 5.03 4.51 4.98C4.58 4.47 4.83 4 5.25 3.64C5.72 3.23 6.34 3 6.99 3C7.64 3 8.26 3.23 8.73 3.64C9.22 4.07 9.49 4.64 9.48 5.25C9.5 6.16 8.9 6.97 7.98 7.33Z" fill="#A5A6AA"/>
</svg>
